<?xml version="1.0" encoding="UTF-8" standalone="no"?>
<!-- Created with Inkscape (http://www.inkscape.org/) -->

<svg
   width="16"
   height="16"
   viewBox="0 0 16 16"
   version="1.1"
   id="svg1"
   inkscape:version="1.4.2 (f4327f4, 2025-05-13)"
   sodipodi:docname="white logo.svg"
   xmlns:inkscape="http://www.inkscape.org/namespaces/inkscape"
   xmlns:sodipodi="http://sodipodi.sourceforge.net/DTD/sodipodi-0.dtd"
   xmlns="http://www.w3.org/2000/svg"
   xmlns:svg="http://www.w3.org/2000/svg">
  <sodipodi:namedview
     id="namedview1"
     pagecolor="#505050"
     bordercolor="#eeeeee"
     borderopacity="1"
     inkscape:showpageshadow="0"
     inkscape:pageopacity="0"
     inkscape:pagecheckerboard="0"
     inkscape:deskcolor="#505050"
     inkscape:document-units="px"
     inkscape:zoom="8.1096309"
     inkscape:cx="50.433861"
     inkscape:cy="36.746432"
     inkscape:window-width="1600"
     inkscape:window-height="978"
     inkscape:window-x="-6"
     inkscape:window-y="-6"
     inkscape:window-maximized="1"
     inkscape:current-layer="layer1" />
  <defs
     id="defs1">
    <rect
       x="297.32971"
       y="533.62396"
       width="380.16348"
       height="95.040871"
       id="rect503-6" />
  </defs>
  <g
     inkscape:label="Layer 1"
     inkscape:groupmode="layer"
     id="layer1">
    <path
       id="path498-6"
       style="fill:#f2f2f2;fill-opacity:1;stroke-width:0.039108"
       d="m 12.064132,-0.0921514 a 0.86001883,0.73592709 0 0 0 -0.860028,0.73602087 0.86001883,0.73592709 0 0 0 0.47853,0.65939073 v 1.1610546 l -2.6441822,1.1370534 0.010514,0.013709 H 9.0176837 V 6.8357045 H 7.0876416 L 6.326894,3.3977102 A 1.7220348,1.5507711 0.56840077 0 0 6.8902769,1.9219438 1.7220348,1.5507711 0.56840077 0 0 5.7916527,0.76610695 L 6.0980945,2.1509342 C 6.1441416,2.3590781 5.990478,2.5605743 5.7535997,2.6026556 L 4.8553621,2.7623227 C 4.6184781,2.804404 4.3906837,2.6706613 4.3446343,2.4625163 L 4.0379008,1.0766462 a 1.7220348,1.5507711 0.56840077 0 0 -0.5251637,1.445355 1.7220348,1.5507711 0.56840077 0 0 1.2260343,1.192809 L 5.4292602,6.8357034 H 0.94979046 c -0.50892456,0 -0.91869588,0.4059385 -0.91869588,0.9102973 v 1.7533599 c 0,0.5043584 0.40977132,0.9104484 0.91869588,0.9104484 H 6.2200904 l 0.5566109,2.515919 a 1.5153329,1.2854355 0 0 0 -0.4613841,0.923713 1.5153329,1.2854355 0 0 0 1.515319,1.285388 1.5153329,1.2854355 0 0 0 1.515319,-1.285388 1.5153329,1.2854355 0 0 0 -0.9718009,-1.199965 l -0.495531,-2.239667 h 1.1390909 v 2.012016 h 0.00712 l -0.00226,0.0031 2.6441778,1.136902 v 1.001687 a 0.86001883,0.73592709 0 0 0 -0.490563,0.664609 0.86001883,0.73592709 0 0 0 0.860031,0.735869 0.86001883,0.73592709 0 0 0 0.860029,-0.735869 0.86001883,0.73592709 0 0 0 -0.515387,-0.674302 v -1.150766 h -0.0049 l 0.0081,-0.01055 -2.562789,-1.102018 V 10.40981 h 1.034233 v 1.219198 h 0.0034 l 3.077576,1.406295 a 0.86001883,0.73592709 0 0 0 0.859729,0.715894 0.86001883,0.73592709 0 0 0 0.86003,-0.735873 0.86001883,0.73592709 0 0 0 -0.86003,-0.736017 0.86001883,0.73592709 0 0 0 -0.690486,0.297269 L 11.609426,11.435947 V 10.40981 h 1.701099 v 0.190081 a 0.86001883,0.73592709 0 0 0 -0.54472,0.684736 0.86001883,0.73592709 0 0 0 0.860031,0.73587 0.86001883,0.73592709 0 0 0 0.860031,-0.73587 0.86001883,0.73592709 0 0 0 -0.421666,-0.633154 V 10.40981 h 1.066578 c 0.508926,0 0.918704,-0.40609 0.918704,-0.9104453 v -1.753361 c 0,-0.5043588 -0.409778,-0.9102973 -0.918704,-0.9102973 H 14.064272 V 6.0081547 A 0.86001883,0.73592709 0 0 0 14.567777,5.3386266 0.86001883,0.73592709 0 0 0 13.707746,4.6026059 0.86001883,0.73592709 0 0 0 12.84772,5.3386266 0.86001883,0.73592709 0 0 0 13.310599,5.9913077 V 6.8357134 H 11.609497 V 4.9850009 l 2.758211,-1.2603425 a 0.86001883,0.73592709 0 0 0 0.491315,0.1319398 0.86001883,0.73592709 0 0 0 0.860023,-0.7358729 0.86001883,0.73592709 0 0 0 -0.860023,-0.7360207 0.86001883,0.73592709 0 0 0 -0.860031,0.7360207 0.86001883,0.73592709 0 0 0 0.03881,0.2187042 l -3.172501,1.4496786 h -0.0096 V 6.8357134 H 9.821462 V 3.7426963 l 2.578887,-1.1090229 -0.0079,-0.010443 h 0.0047 v -1.300726 a 0.86001883,0.73592709 0 0 0 0.527262,-0.67862226 0.86001883,0.73592709 0 0 0 -0.860053,-0.73602099 z m 0.0045,0.33603226 A 0.49906407,0.41179113 0 0 1 12.567641,0.65564548 0.49906407,0.41179113 0 0 1 12.068654,1.0674132 0.49906407,0.41179113 0 0 1 11.569512,0.65564548 0.49906407,0.41179113 0 0 1 12.068654,0.24388086 Z M 14.862961,2.7207357 A 0.49906407,0.41179113 0 0 1 15.361952,3.1325043 0.49906407,0.41179113 0 0 1 14.862961,3.5444195 0.49906407,0.41179113 0 0 1 14.363819,3.1325043 0.49906407,0.41179113 0 0 1 14.862961,2.7207357 Z M 13.711688,4.938637 A 0.49906407,0.41179113 0 0 1 14.210683,5.3504045 0.49906407,0.41179113 0 0 1 13.711688,5.7621697 0.49906407,0.41179113 0 0 1 13.212557,5.3504045 0.49906407,0.41179113 0 0 1 13.711688,4.938637 Z m -0.08184,5.946008 a 0.49906407,0.41179113 0 0 1 0.499142,0.411768 0.49906407,0.41179113 0 0 1 -0.499142,0.411915 0.49906407,0.41179113 0 0 1 -0.498987,-0.411915 0.49906407,0.41179113 0 0 1 0.498987,-0.411768 z M 3.594411,11.103648 c -0.00916,0.0012 -0.1494681,0.0067 -0.3092976,0.03116 l -0.022848,0.0034 c -0.1598295,0.02449 -0.2935616,0.06124 -0.2972596,0.06589 -0.071383,0.0191 -0.120603,0.07558 -0.1162923,0.140137 l 0.013261,0.283408 c -0.094581,0.04304 -0.1883938,0.09002 -0.2704781,0.14744 L 2.2897259,11.641996 c -0.067776,-0.03038 -0.1455089,-0.01846 -0.1964727,0.03013 -0.00373,0.0047 -0.098052,0.09252 -0.1911965,0.208715 l -0.015036,0.01862 c -0.088578,0.115494 -0.1551604,0.223447 -0.1588629,0.228095 -0.030174,0.05762 -0.020316,0.125485 0.036256,0.169804 l 0.2434107,0.190977 c -0.03343,0.08665 -0.056787,0.175852 -0.070252,0.267601 l -0.3204256,0.0899 c -0.070546,0.02303 -0.11519,0.07885 -0.1108837,0.143417 0.00192,0.0079 0.00871,0.129136 0.038077,0.267305 l 0.00418,0.0197 c 0.028976,0.136011 0.071609,0.250242 0.078064,0.256872 v 1.44e-4 0 c 0.022588,0.06177 0.088318,0.104681 0.1630662,0.101382 l 0.327955,-0.0096 c 0.050456,0.08195 0.1054911,0.163253 0.1725436,0.234507 l -0.1520864,0.259701 c -0.034753,0.05832 -0.020508,0.125483 0.03611,0.169806 0.00543,0.0032 0.1079217,0.08533 0.2431042,0.166523 l 0.021492,0.01311 c 0.1343516,0.07724 0.2599731,0.135403 0.2653681,0.138646 0.066928,0.02644 0.1455134,0.01846 0.1964648,-0.03013 l 0.2195527,-0.209005 c 0.1005845,0.02943 0.2041345,0.05038 0.3104915,0.06261 l 0.1062033,0.277143 c 0.027156,0.06107 0.091936,0.10006 0.1666852,0.09675 0.00916,-0.0012 0.1496162,-0.0067 0.3094423,-0.03116 l 0.022701,-0.0034 c 0.1598295,-0.02452 0.2936147,-0.06133 0.298155,-0.06202 0.071394,-0.0191 0.1206053,-0.07558 0.1162923,-0.140139 L 4.436909,14.284595 c 0.094581,-0.04304 0.1883893,-0.09002 0.2704747,-0.147444 l 0.3026727,0.137156 c 0.067776,0.03038 0.1453585,0.01846 0.1963144,-0.03013 0.00373,-0.0047 0.098222,-0.09252 0.1913548,-0.208715 l 0.014878,-0.01862 c 0.088578,-0.115494 0.155157,-0.223447 0.158855,-0.228095 0.030185,-0.05762 0.020508,-0.125486 -0.03611,-0.169807 L 5.2910421,13.423933 c 0.03343,-0.08666 0.056787,-0.175851 0.070252,-0.267604 l 0.3204222,-0.08974 c 0.070546,-0.02304 0.1151821,-0.07885 0.1108611,-0.14342 -0.00147,-0.0079 -0.00859,-0.129133 -0.038054,-0.267306 l -0.00418,-0.01982 C 5.7209123,12.497876 5.6765723,12.378351 5.6757357,12.374407 5.6531474,12.31264 5.5874176,12.269725 5.5126604,12.273025 l -0.3280974,0.0096 c -0.050456,-0.082 -0.1054911,-0.163299 -0.1725437,-0.234553 l 0.1475756,-0.259106 c 0.034753,-0.05832 0.020474,-0.125336 -0.03611,-0.169657 -0.00543,-0.0032 -0.1077634,-0.08548 -0.2429539,-0.166672 L 4.8588928,11.43965 C 4.7245412,11.362409 4.598922,11.304255 4.5935281,11.301002 4.5265999,11.274562 4.4481662,11.282538 4.3972137,11.33113 L 4.1775818,11.539992 C 4.0769973,11.510564 3.9735955,11.489757 3.8672305,11.477526 L 3.7610272,11.20038 C 3.7338712,11.13931 3.6689442,11.100319 3.5941985,11.10363 Z m -0.1134297,0.286386 0.097487,0.258211 c 0.021752,0.05782 0.082032,0.09754 0.1484822,0.09959 0.1437227,0.01055 0.286169,0.03763 0.4183488,0.0826 0.062372,0.02713 0.1400179,0.01525 0.1918081,-0.02937 l 0.208504,-0.194999 c 0.037014,0.01879 0.079341,0.0408 0.1226007,0.06679 l 0.021639,0.01299 c 0.043266,0.02596 0.081942,0.0526 0.1152341,0.07603 l -0.1418607,0.24196 c -0.024397,0.04043 -0.022554,0.09311 0.00497,0.133726 0.00712,0.01115 0.014166,0.02227 0.024962,0.02877 0.095768,0.09539 0.1749845,0.201556 0.2330266,0.319035 0.030027,0.05247 0.09414,0.08747 0.1597538,0.08557 l 0.3089924,-0.01077 c 0.012131,0.03483 0.021299,0.07823 0.030525,0.121651 l 0.00339,0.01582 c 0.00927,0.04342 0.018507,0.08692 0.021526,0.123142 l -0.2984647,0.08244 c -0.066815,0.0184 -0.1114377,0.0742 -0.1125231,0.135512 -0.00678,0.123335 -0.037206,0.246092 -0.092965,0.360631 -0.021865,0.05228 -0.00848,0.115465 0.042712,0.156538 l 0.2273038,0.181284 c -0.021492,0.03184 -0.046748,0.06822 -0.076572,0.105404 l -0.014878,0.01862 c -0.029801,0.03718 -0.060484,0.07041 -0.087402,0.09899 L 4.761986,13.83944 c -0.020779,-0.009 -0.046273,-0.01743 -0.069958,-0.0179 -0.04278,-0.0016 -0.087561,0.0094 -0.1198919,0.03474 -0.1090071,0.08601 -0.2358858,0.154459 -0.3715714,0.203797 -0.060563,0.02558 -0.1015455,0.07669 -0.098086,0.137303 l 0.014426,0.266858 c -0.040259,0.01022 -0.090421,0.01793 -0.1406475,0.02565 l -0.022848,0.0034 c -0.05023,0.0077 -0.100528,0.01537 -0.1424689,0.01774 l -0.095825,-0.250311 c -0.021752,-0.05781 -0.082032,-0.09739 -0.1484789,-0.09944 -0.1391632,-0.01129 -0.2762383,-0.03509 -0.408426,-0.08006 -0.063209,-0.03107 -0.1507784,-0.02174 -0.2017342,0.02685 L 2.747975,14.303111 c -0.037014,-0.01877 -0.079342,-0.0408 -0.1226007,-0.06679 l -0.021684,-0.01299 c -0.043266,-0.02596 -0.081942,-0.05275 -0.1152307,-0.07618 L 2.6228,13.914592 c 0.010401,-0.0179 0.020587,-0.03584 0.021831,-0.05232 0.00984,-0.04228 -0.00848,-0.08425 -0.038812,-0.116283 -0.09492,-0.09144 -0.1732649,-0.19358 -0.2304647,-0.30711 l -7.564e-4,-0.0039 c -0.022588,-0.06177 -0.087561,-0.100804 -0.1623144,-0.09749 l -0.3088454,0.01078 c -0.012131,-0.03483 -0.021412,-0.07823 -0.030672,-0.121652 l -0.00339,-0.01582 c -0.00927,-0.04343 -0.018507,-0.08691 -0.021526,-0.123142 l 0.2984648,-0.08244 c 0.066815,-0.01841 0.1124099,-0.07024 0.1143319,-0.127614 0.00667,-0.123331 0.037093,-0.246192 0.088307,-0.360035 0.00373,-0.0047 0.00305,-0.0087 0.00656,-0.01326 0.021039,-0.05622 0.00848,-0.115463 -0.042723,-0.156536 L 2.0854864,12.166632 c 0.021492,-0.03184 0.046771,-0.06837 0.076572,-0.105548 l 0.014878,-0.01862 c 0.029801,-0.03718 0.060473,-0.07041 0.087402,-0.09899 l 0.2710864,0.121503 c 0.020813,0.009 0.046126,0.01743 0.0698,0.0179 0.04278,0.0016 0.087719,-0.0094 0.1200434,-0.03474 0.1052763,-0.08136 0.227522,-0.14905 0.3586368,-0.197686 0.071383,-0.0191 0.1160809,-0.07483 0.1117656,-0.139389 l -0.016088,-0.27476 c 0.040247,-0.01022 0.090568,-0.01793 0.1408036,-0.02565 l 0.018202,-0.0029 c 0.05023,-0.0077 0.100528,-0.01538 0.1424542,-0.01774 z m 0.1859462,0.790587 c -0.059354,-0.0012 -0.1195709,0.0022 -0.1800753,0.01163 -0.4886302,0.07491 -0.8082327,0.478567 -0.7190803,0.897031 0.089991,0.422406 0.5596464,0.701097 1.0437103,0.626889 0.4840707,-0.0742 0.8082282,-0.478569 0.7190792,-0.897028 -0.078754,-0.369607 -0.4482381,-0.629132 -0.8636339,-0.63852 z m -0.00644,0.284599 c 0.2626785,0.0063 0.4964795,0.17213 0.5457735,0.403565 0.056346,0.264498 -0.1485015,0.520206 -0.4544606,0.567111 -0.3059659,0.0469 -0.603464,-0.131763 -0.6598024,-0.396263 -0.056346,-0.264497 0.1486529,-0.520206 0.4546154,-0.567109 0.038246,-0.0059 0.076346,-0.0082 0.1138741,-0.0073 z m 11.1397855,0.150273 a 0.49906407,0.41179113 0 0 1 0.498979,0.411769 0.49906407,0.41179113 0 0 1 -0.498979,0.411764 0.49906407,0.41179113 0 0 1 -0.499146,-0.411764 0.49906407,0.41179113 0 0 1 0.499146,-0.411769 z m -7.0297821,0.476916 0.8016631,0.368086 0.00407,0.741983 -0.7976067,0.373749 -0.8018067,-0.367935 -0.00407,-0.741983 z m 4.1127111,1.756788 h 0.314406 a 0.49906407,0.41179113 0 0 1 0.341786,0.390747 0.49906407,0.41179113 0 0 1 -0.498991,0.411764 0.49906407,0.41179113 0 0 1 -0.499135,-0.411764 0.49906407,0.41179113 0 0 1 0.341934,-0.390747 z" />
    <g
       id="g505"
       transform="matrix(0.07667666,0,0,0.07633026,-145.5244,-15.884122)">
      <rect
         style="fill:#000000;fill-opacity:1;stroke-width:0.378889"
         id="rect502-0"
         width="201.83633"
         height="42.788044"
         x="1902.2911"
         y="299.73355"
         ry="10.898842" />
      <text
         xml:space="preserve"
         id="text502-8"
         style="font-style:normal;font-variant:normal;font-weight:normal;font-stretch:normal;font-size:74.6667px;font-family:Cambria;-inkscape-font-specification:Cambria;text-align:start;writing-mode:lr-tb;direction:ltr;white-space:pre;shape-inside:url(#rect503-6);display:inline;fill:#f9f9f9;fill-opacity:1"
         transform="matrix(0.65221704,0,0,0.57333783,1716.1945,-8.2088524)"><tspan
           x="297.33008"
           y="601.03454"
           id="tspan4"><tspan
             style="font-family:'Segoe UI';-inkscape-font-specification:'Segoe UI'"
             id="tspan3">Tharz-37</tspan></tspan></text>
    </g>
  </g>
</svg>
